<?xml version="1.0" standalone="no"?>
<svg xmlns:xlink="http://www.w3.org/1999/xlink" id="wave" style="transform:rotate(180deg); transition: 0.3s" viewBox="0 0 1440 410" version="1.1" xmlns="http://www.w3.org/2000/svg"><defs><linearGradient id="sw-gradient-0" x1="0" x2="0" y1="1" y2="0"><stop stop-color="rgba(239, 239, 254, 1)" offset="0%"/><stop stop-color="rgba(239, 239, 254, 1)" offset="100%"/></linearGradient></defs><path style="transform:translate(0, 0px); opacity:1" fill="url(#sw-gradient-0)" d="M0,0L60,54.7C120,109,240,219,360,280.2C480,342,600,355,720,314.3C840,273,960,178,1080,136.7C1200,96,1320,109,1440,150.3C1560,191,1680,260,1800,266.5C1920,273,2040,219,2160,198.2C2280,178,2400,191,2520,211.8C2640,232,2760,260,2880,273.3C3000,287,3120,287,3240,273.3C3360,260,3480,232,3600,246C3720,260,3840,314,3960,300.7C4080,287,4200,205,4320,170.8C4440,137,4560,150,4680,150.3C4800,150,4920,137,5040,164C5160,191,5280,260,5400,252.8C5520,246,5640,164,5760,143.5C5880,123,6000,164,6120,150.3C6240,137,6360,68,6480,61.5C6600,55,6720,109,6840,170.8C6960,232,7080,301,7200,287C7320,273,7440,178,7560,136.7C7680,96,7800,109,7920,116.2C8040,123,8160,123,8280,143.5C8400,164,8520,205,8580,225.5L8640,246L8640,410L8580,410C8520,410,8400,410,8280,410C8160,410,8040,410,7920,410C7800,410,7680,410,7560,410C7440,410,7320,410,7200,410C7080,410,6960,410,6840,410C6720,410,6600,410,6480,410C6360,410,6240,410,6120,410C6000,410,5880,410,5760,410C5640,410,5520,410,5400,410C5280,410,5160,410,5040,410C4920,410,4800,410,4680,410C4560,410,4440,410,4320,410C4200,410,4080,410,3960,410C3840,410,3720,410,3600,410C3480,410,3360,410,3240,410C3120,410,3000,410,2880,410C2760,410,2640,410,2520,410C2400,410,2280,410,2160,410C2040,410,1920,410,1800,410C1680,410,1560,410,1440,410C1320,410,1200,410,1080,410C960,410,840,410,720,410C600,410,480,410,360,410C240,410,120,410,60,410L0,410Z"/></svg>